<svg width="733" height="394" viewBox="0 0 733 394" fill="none" xmlns="http://www.w3.org/2000/svg">
<path d="M101.4 212.4C99 212.4 97.7 211.3 97.5 209.1L92.7 180.3C92.7 179.3 92.1 178.8 90.9 178.8H52.8C51.6 178.8 51 179.3 51 180.3L46.2 209.1C46 211.3 44.7 212.4 42.3 212.4H7.2C4.6 212.4 3.6 211.1 4.2 208.5L48.3 5.6999C48.7 3.49989 50 2.39989 52.2 2.39989H92.7C94.9 2.39989 96.2 3.49989 96.6 5.6999L140.4 208.5L140.7 209.7C140.7 211.5 139.6 212.4 137.4 212.4H101.4ZM57 144.6C57 145.6 57.4 146.1 58.2 146.1H85.2C86.2 146.1 86.6 145.6 86.4 144.6L72.3 62.6999C72.1 62.0999 71.8 61.7999 71.4 61.7999C71 61.7999 70.7 62.0999 70.5 62.6999L57 144.6ZM261.727 35.0999C261.727 36.0999 261.327 36.9999 260.527 37.7999C259.927 38.3999 259.127 38.6999 258.127 38.6999H195.727C194.727 38.6999 194.227 39.1999 194.227 40.1999V87.5999C194.227 88.5999 194.727 89.0999 195.727 89.0999H231.427C232.427 89.0999 233.227 89.4999 233.827 90.2999C234.627 90.8999 235.027 91.6999 235.027 92.6999V121.8C235.027 122.8 234.627 123.7 233.827 124.5C233.227 125.1 232.427 125.4 231.427 125.4H195.727C194.727 125.4 194.227 125.9 194.227 126.9V208.8C194.227 209.8 193.827 210.7 193.027 211.5C192.427 212.1 191.627 212.4 190.627 212.4H155.527C154.527 212.4 153.627 212.1 152.827 211.5C152.227 210.7 151.927 209.8 151.927 208.8V5.9999C151.927 4.9999 152.227 4.19989 152.827 3.59989C153.627 2.79989 154.527 2.39989 155.527 2.39989H258.127C259.127 2.39989 259.927 2.79989 260.527 3.59989C261.327 4.19989 261.727 4.9999 261.727 5.9999V35.0999ZM354.996 212.4C352.796 212.4 351.396 211.4 350.796 209.4L327.696 126.6C327.296 125.8 326.796 125.4 326.196 125.4H315.996C314.996 125.4 314.496 125.9 314.496 126.9V208.8C314.496 209.8 314.096 210.7 313.296 211.5C312.696 212.1 311.896 212.4 310.896 212.4H275.796C274.796 212.4 273.896 212.1 273.096 211.5C272.496 210.7 272.196 209.8 272.196 208.8V5.9999C272.196 4.9999 272.496 4.19989 273.096 3.59989C273.896 2.79989 274.796 2.39989 275.796 2.39989H336.396C347.396 2.39989 357.196 5.09989 365.796 10.4999C374.396 15.6999 380.996 23.0999 385.596 32.6999C390.396 42.2999 392.796 53.2999 392.796 65.6999C392.796 77.4999 390.496 87.8999 385.896 96.8999C381.496 105.9 375.296 112.9 367.296 117.9C366.896 118.1 366.596 118.4 366.396 118.8C366.196 119 366.196 119.3 366.396 119.7L393.996 208.2L394.296 209.4C394.296 211.4 393.196 212.4 390.996 212.4H354.996ZM315.996 38.6999C314.996 38.6999 314.496 39.1999 314.496 40.1999V91.4999C314.496 92.4999 314.996 92.9999 315.996 92.9999H329.496C335.696 92.9999 340.696 90.5999 344.496 85.7999C348.496 80.7999 350.496 74.1999 350.496 65.9999C350.496 57.5999 348.496 50.9999 344.496 46.1999C340.696 41.1999 335.696 38.6999 329.496 38.6999H315.996ZM411.007 212.4C410.007 212.4 409.107 212.1 408.307 211.5C407.707 210.7 407.407 209.8 407.407 208.8V5.9999C407.407 4.9999 407.707 4.19989 408.307 3.59989C409.107 2.79989 410.007 2.39989 411.007 2.39989H446.107C447.107 2.39989 447.907 2.79989 448.507 3.59989C449.307 4.19989 449.707 4.9999 449.707 5.9999V208.8C449.707 209.8 449.307 210.7 448.507 211.5C447.907 212.1 447.107 212.4 446.107 212.4H411.007ZM527.248 214.8C509.248 214.8 494.748 209.5 483.748 198.9C472.948 188.1 467.548 173.7 467.548 155.7V58.4999C467.548 40.6999 472.948 26.4999 483.748 15.8999C494.748 5.2999 509.248 -9.89437e-05 527.248 -9.89437e-05C545.448 -9.89437e-05 559.948 5.2999 570.748 15.8999C581.748 26.4999 587.248 40.6999 587.248 58.4999V61.7999C587.248 62.7999 586.848 63.6999 586.048 64.4999C585.448 65.0999 584.648 65.3999 583.648 65.3999L548.548 66.8999C546.148 66.8999 544.948 65.7999 544.948 63.5999V55.7999C544.948 49.9999 543.348 45.2999 540.148 41.6999C536.948 38.0999 532.648 36.2999 527.248 36.2999C522.048 36.2999 517.848 38.0999 514.648 41.6999C511.448 45.2999 509.848 49.9999 509.848 55.7999V159.3C509.848 165.1 511.448 169.8 514.648 173.4C517.848 176.8 522.048 178.5 527.248 178.5C532.648 178.5 536.948 176.8 540.148 173.4C543.348 169.8 544.948 165.1 544.948 159.3V151.2C544.948 150.2 545.248 149.4 545.848 148.8C546.648 148 547.548 147.6 548.548 147.6L583.648 149.1C584.648 149.1 585.448 149.5 586.048 150.3C586.848 150.9 587.248 151.7 587.248 152.7V155.7C587.248 173.7 581.748 188.1 570.748 198.9C559.748 209.5 545.248 214.8 527.248 214.8ZM688.978 212.4C686.578 212.4 685.278 211.3 685.078 209.1L680.278 180.3C680.278 179.3 679.678 178.8 678.478 178.8H640.378C639.178 178.8 638.578 179.3 638.578 180.3L633.778 209.1C633.578 211.3 632.278 212.4 629.878 212.4H594.778C592.178 212.4 591.178 211.1 591.778 208.5L635.878 5.6999C636.278 3.49989 637.578 2.39989 639.778 2.39989H680.278C682.478 2.39989 683.778 3.49989 684.178 5.6999L727.978 208.5L728.278 209.7C728.278 211.5 727.178 212.4 724.978 212.4H688.978ZM644.578 144.6C644.578 145.6 644.978 146.1 645.778 146.1H672.778C673.778 146.1 674.178 145.6 673.978 144.6L659.878 62.6999C659.678 62.0999 659.378 61.7999 658.978 61.7999C658.578 61.7999 658.278 62.0999 658.078 62.6999L644.578 144.6Z" fill="url(#paint0_linear_47_1689)"/>
<foreignObject x="7.27031" y="135.4" width="703.22" height="277.4"><div xmlns="http://www.w3.org/1999/xhtml" style="backdrop-filter:blur(9.5px);clip-path:url(#bgblur_0_47_1689_clip_path);height:100%;width:100%"></div></foreignObject><path data-figma-bg-blur-radius="19" d="M26.2703 309C26.2703 304.2 27.0036 298 28.4703 290.4C30.0703 282.667 32.0703 274.4 34.4703 265.6C37.0036 256.667 39.8703 247.6 43.0703 238.4C46.2703 229.067 49.537 220.333 52.8703 212.2C56.2036 204.067 59.4703 196.933 62.6703 190.8C65.8703 184.667 68.737 180.267 71.2703 177.6C72.6036 177.733 74.337 178.267 76.4703 179.2C78.737 180 81.0036 181 83.2703 182.2C85.537 183.4 87.6037 184.733 89.4703 186.2C91.337 187.533 92.537 188.8 93.0703 190C89.2037 193.467 85.337 198.733 81.4703 205.8C77.737 212.733 74.0703 220.667 70.4703 229.6C67.0036 238.533 63.737 248 60.6703 258C57.6036 267.867 54.937 277.467 52.6703 286.8C50.4036 296.133 48.6036 304.8 47.2703 312.8C46.0703 320.8 45.4703 327.267 45.4703 332.2C45.4703 334.467 45.6703 335.867 46.0703 336.4C43.137 336.267 41.0036 335.733 39.6703 334.8C38.337 334 37.2703 333.067 36.4703 332C35.8036 331.067 35.137 330.067 34.4703 329C33.937 328.067 33.0703 327.333 31.8703 326.8C30.937 326.4 30.137 325.467 29.4703 324C28.8036 322.533 28.2036 320.933 27.6703 319.2C27.2703 317.333 26.937 315.467 26.6703 313.6C26.4036 311.733 26.2703 310.2 26.2703 309ZM142.041 240.8C141.907 243.333 141.441 246 140.641 248.8C139.974 251.467 139.107 253.933 138.041 256.2C136.974 258.333 135.841 260.133 134.641 261.6C133.441 263.067 132.307 263.8 131.241 263.8C129.774 263.667 128.907 262.667 128.641 260.8C128.641 260.4 128.774 259.8 129.041 259C129.441 258.067 129.841 257.067 130.241 256C130.641 254.933 130.974 253.867 131.241 252.8C131.641 251.733 131.841 250.8 131.841 250C131.841 248.133 131.374 246.6 130.441 245.4C129.641 244.067 128.507 243.4 127.041 243.4C121.707 243.4 117.641 246.733 114.841 253.4C112.041 260.067 110.641 269.867 110.641 282.8C110.641 284.133 110.707 284.933 110.841 285.2C113.641 285.067 116.107 285 118.241 285C120.507 284.867 122.707 284.8 124.841 284.8C124.974 285.067 125.041 285.6 125.041 286.4C125.041 287.6 124.774 288.467 124.241 289C121.174 289.667 118.707 290.267 116.841 290.8C115.107 291.2 113.774 291.6 112.841 292C111.907 292.4 111.307 292.867 111.041 293.4C110.907 293.8 110.841 294.4 110.841 295.2C110.841 296.267 110.841 297.333 110.841 298.4C110.974 299.467 111.041 300.8 111.041 302.4C111.041 313.6 107.974 322.6 101.841 329.4C95.8406 336.2 87.4406 340.133 76.6406 341.2C74.774 341.067 72.8406 340.533 70.8406 339.6C68.8406 338.667 66.9073 337.467 65.0406 336C63.3073 334.533 61.774 332.867 60.4406 331C59.1073 329.267 58.174 327.467 57.6406 325.6C57.6406 320.533 58.7073 315.733 60.8406 311.2C62.974 306.533 65.8406 302.467 69.4406 299C73.174 295.4 77.5073 292.533 82.4406 290.4C87.5073 288.133 92.974 286.8 98.8406 286.4C98.8406 283.067 98.5073 279.8 97.8406 276.6C97.174 273.4 96.4406 270.333 95.6406 267.4C94.974 264.333 94.3073 261.4 93.6406 258.6C92.974 255.667 92.6406 252.8 92.6406 250C92.6406 246.4 93.374 242.867 94.8406 239.4C96.3073 235.8 98.2406 232.533 100.641 229.6C103.041 226.533 105.841 223.933 109.041 221.8C112.241 219.667 115.574 218.2 119.041 217.4C120.507 217.8 122.441 219 124.841 221C127.374 222.867 129.841 225 132.241 227.4C134.641 229.8 136.774 232.267 138.641 234.8C140.507 237.2 141.641 239.2 142.041 240.8ZM76.0406 332C79.2406 330.667 82.2406 328.733 85.0406 326.2C87.974 323.667 90.5073 320.8 92.6406 317.6C94.774 314.4 96.4406 311 97.6406 307.4C98.974 303.8 99.6406 300.267 99.6406 296.8C96.974 297.2 94.0406 298.467 90.8406 300.6C87.6406 302.6 84.6406 305.067 81.8406 308C79.0406 310.8 76.7073 313.733 74.8406 316.8C72.974 319.867 72.0406 322.533 72.0406 324.8C72.0406 327.733 73.374 330.133 76.0406 332ZM186.838 281.2C186.838 271.867 187.904 262.733 190.038 253.8C192.304 244.733 195.438 236.2 199.438 228.2C203.438 220.067 208.171 212.667 213.638 206C219.238 199.2 225.304 193.333 231.838 188.4C238.504 183.467 245.571 179.667 253.038 177C260.504 174.2 268.171 172.8 276.037 172.8C285.238 172.8 292.371 174.733 297.438 178.6C302.638 182.467 305.238 187.867 305.238 194.8C305.238 197.467 304.838 200.2 304.038 203C303.371 205.8 302.304 208.6 300.838 211.4C299.504 214.067 297.904 216.667 296.038 219.2C294.171 221.733 292.104 223.933 289.838 225.8C286.371 225.267 283.371 223.733 280.838 221.2C278.304 218.533 276.704 215.467 276.037 212C280.704 208.133 284.371 204.133 287.038 200C289.838 195.733 291.238 191.867 291.238 188.4C291.238 182.533 287.571 179.6 280.238 179.6C277.171 179.6 273.971 180.267 270.638 181.6C267.438 182.8 264.171 184.533 260.838 186.8C257.504 189.067 254.238 191.8 251.038 195C247.971 198.2 245.104 201.733 242.438 205.6C223.904 232.267 214.638 259.533 214.638 287.4C214.638 297.267 216.171 305.2 219.238 311.2C222.304 317.2 226.371 320.733 231.438 321.8C237.171 320.467 244.438 316.8 253.238 310.8C262.038 304.8 271.638 297 282.038 287.4C283.371 288.733 284.171 290.133 284.438 291.6C280.571 296.667 276.571 301.533 272.438 306.2C268.304 310.867 264.171 315.133 260.038 319C256.038 322.867 252.038 326.267 248.038 329.2C244.171 332.133 240.571 334.4 237.238 336C220.704 335.733 208.171 331 199.638 321.8C191.104 312.6 186.838 299.067 186.838 281.2ZM361.541 239.6C362.874 239.6 364.407 239.867 366.141 240.4C368.007 240.8 369.674 241.4 371.141 242.2C372.607 242.867 373.807 243.6 374.741 244.4C375.807 245.2 376.341 245.933 376.341 246.6C373.674 252.2 371.207 257.867 368.941 263.6C366.674 269.2 364.741 274.6 363.141 279.8C361.541 285 360.274 289.867 359.341 294.4C358.541 298.933 358.141 302.867 358.141 306.2C358.141 309.933 358.541 313.067 359.341 315.6C360.141 318 361.474 319.733 363.341 320.8C361.741 321.867 359.674 322.733 357.141 323.4C354.607 324.067 352.341 324.4 350.341 324.4C343.141 324.4 339.541 319.467 339.541 309.6C339.541 302 342.074 291.6 347.141 278.4C344.474 284.533 341.407 290.333 337.941 295.8C334.474 301.133 330.941 305.867 327.341 310C323.741 314.133 320.074 317.533 316.341 320.2C312.741 322.733 309.407 324.267 306.341 324.8C301.407 324.533 297.407 322.2 294.341 317.8C291.274 313.267 289.741 307.533 289.741 300.6C289.741 293.133 291.341 285.267 294.541 277C297.741 268.733 301.807 261.067 306.741 254C311.807 246.933 317.274 241.067 323.141 236.4C329.007 231.6 334.674 229.067 340.141 228.8C341.474 229.2 342.941 230 344.541 231.2C346.274 232.4 347.874 233.8 349.341 235.4C350.941 237 352.274 238.667 353.341 240.4C354.407 242 355.007 243.4 355.141 244.6C349.807 245.4 344.274 248 338.541 252.4C332.941 256.8 327.807 262.133 323.141 268.4C318.607 274.533 314.874 281.133 311.941 288.2C309.007 295.267 307.541 301.867 307.541 308C307.541 310.533 308.474 312.133 310.341 312.8C314.207 312 318.674 308.733 323.741 303C328.807 297.133 334.941 288.133 342.141 276C343.474 273.6 344.941 270.933 346.541 268C348.274 265.067 350.007 262 351.741 258.8C353.474 255.6 355.141 252.4 356.741 249.2C358.474 245.867 360.074 242.667 361.541 239.6ZM380.286 307.6C380.286 301.733 381.686 293.533 384.486 283C387.286 272.333 391.219 259.933 396.286 245.8C404.553 223.267 412.286 204.533 419.486 189.6C426.819 174.533 433.953 162.8 440.886 154.4C442.486 154.667 444.419 155.333 446.686 156.4C449.086 157.467 451.419 158.667 453.686 160C455.953 161.2 457.953 162.467 459.686 163.8C461.553 165.133 462.753 166.2 463.286 167C452.886 179.267 443.753 192.467 435.886 206.6C428.019 220.733 420.819 236.933 414.286 255.2C408.686 270.933 404.419 285.133 401.486 297.8C398.553 310.333 397.086 320.8 397.086 329.2C397.086 331.467 397.086 332.867 397.086 333.4C397.086 333.933 397.153 334.467 397.286 335C395.419 334.733 393.819 334.267 392.486 333.6C391.153 332.933 390.286 332.133 389.886 331.2C389.619 330.533 388.886 329.533 387.686 328.2C386.486 327 385.419 326.067 384.486 325.4C383.286 324.6 382.286 322.533 381.486 319.2C380.686 315.733 380.286 311.867 380.286 307.6ZM421.552 307.6C421.552 301.733 422.952 293.533 425.752 283C428.552 272.333 432.485 259.933 437.552 245.8C445.818 223.267 453.552 204.533 460.752 189.6C468.085 174.533 475.218 162.8 482.152 154.4C483.752 154.667 485.685 155.333 487.952 156.4C490.352 157.467 492.685 158.667 494.952 160C497.218 161.2 499.218 162.467 500.952 163.8C502.818 165.133 504.018 166.2 504.552 167C494.152 179.267 485.018 192.467 477.152 206.6C469.285 220.733 462.085 236.933 455.552 255.2C449.952 270.933 445.685 285.133 442.752 297.8C439.818 310.333 438.352 320.8 438.352 329.2C438.352 331.467 438.352 332.867 438.352 333.4C438.352 333.933 438.418 334.467 438.552 335C436.685 334.733 435.085 334.267 433.752 333.6C432.418 332.933 431.552 332.133 431.152 331.2C430.885 330.533 430.152 329.533 428.952 328.2C427.752 327 426.685 326.067 425.752 325.4C424.552 324.6 423.552 322.533 422.752 319.2C421.952 315.733 421.552 311.867 421.552 307.6ZM463.217 307C463.217 305.8 463.284 304.333 463.417 302.6C463.684 300.733 464.084 298.333 464.617 295.4C465.151 292.333 465.817 288.667 466.617 284.4C467.551 280.133 468.684 275 470.017 269C470.284 267.667 470.884 265.533 471.817 262.6C472.751 259.667 473.951 256.6 475.417 253.4C477.017 250.067 478.884 246.867 481.017 243.8C483.284 240.733 485.951 238.467 489.017 237C491.284 237.533 494.284 238.933 498.017 241.2C501.751 243.333 504.951 246.333 507.617 250.2C504.551 253.667 501.951 257.133 499.817 260.6C497.817 264.067 495.951 267.667 494.217 271.4C492.617 275.133 491.084 279 489.617 283C488.284 287 486.751 291.2 485.017 295.6C483.551 299.333 482.217 303.2 481.017 307.2C479.817 311.067 479.151 314.467 479.017 317.4C479.017 319.8 478.951 321.467 478.817 322.4C478.817 323.467 478.484 324 477.817 324C477.284 324 476.217 323.667 474.617 323C473.017 322.333 471.351 321.333 469.617 320C468.017 318.533 466.551 316.733 465.217 314.6C463.884 312.467 463.217 309.933 463.217 307ZM501.417 220.2C501.417 219.4 501.617 218.2 502.017 216.6C501.351 215.933 500.751 214.933 500.217 213.6C499.817 212.267 499.617 211.067 499.617 210C499.617 208.8 499.751 207.2 500.017 205.2C500.417 203.067 500.884 200.8 501.417 198.4C501.951 196 502.617 193.533 503.417 191C504.217 188.333 505.017 185.933 505.817 183.8C507.417 183.8 509.351 184.267 511.617 185.2C514.017 186 516.417 187.133 518.817 188.6C521.217 189.933 523.417 191.467 525.417 193.2C527.417 194.8 528.951 196.333 530.017 197.8C528.551 199.267 526.617 201.333 524.217 204C521.817 206.533 519.484 209.267 517.217 212.2C514.951 215 512.884 217.667 511.017 220.2C509.151 222.733 507.951 224.533 507.417 225.6C505.817 225.333 504.417 224.667 503.217 223.6C502.017 222.4 501.417 221.267 501.417 220.2ZM536.683 223.4C540.149 224.467 543.416 226.867 546.483 230.6C549.549 234.2 551.816 238.2 553.283 242.6C551.816 246.2 549.549 250.533 546.483 255.6C543.416 260.667 540.349 265.867 537.283 271.2C534.216 276.4 531.416 281.4 528.883 286.2C526.483 290.867 525.083 294.733 524.683 297.8C526.816 295.533 529.149 292.933 531.683 290C534.349 286.933 536.883 283.933 539.283 281C541.816 277.933 544.149 275.2 546.283 272.8C548.416 270.267 550.083 268.4 551.283 267.2C553.816 264.533 556.816 261.467 560.283 258C563.749 254.4 567.349 251.067 571.083 248C574.949 244.8 578.816 242.133 582.683 240C586.549 237.733 590.083 236.6 593.283 236.6C596.749 236.6 599.616 237.8 601.883 240.2C604.283 242.467 606.149 244.867 607.483 247.4C607.483 247.667 606.949 248.067 605.883 248.6C604.949 249 603.549 250.267 601.683 252.4C599.816 254.8 597.683 258.133 595.283 262.4C593.016 266.533 590.749 271.067 588.483 276C586.349 280.8 584.549 285.733 583.083 290.8C581.616 295.867 580.883 300.467 580.883 304.6C580.883 307.933 581.283 310.067 582.083 311C583.016 311.933 584.283 312.4 585.883 312.4C587.349 312.4 588.883 312.067 590.483 311.4C592.083 310.733 593.349 310.4 594.283 310.4C594.816 310.667 595.216 311.267 595.483 312.2C595.883 313 596.083 313.733 596.083 314.4C595.016 315.333 593.749 316.267 592.283 317.2C590.816 318.133 589.283 319 587.683 319.8C586.083 320.6 584.483 321.267 582.883 321.8C581.416 322.333 580.083 322.6 578.883 322.6C575.016 322.6 571.816 322 569.283 320.8C566.883 319.733 564.949 318.267 563.483 316.4C562.149 314.533 561.216 312.333 560.683 309.8C560.149 307.133 559.883 304.333 559.883 301.4C559.883 299.8 560.016 298 560.283 296C560.549 294 561.083 291.667 561.883 289C562.683 286.2 563.816 282.933 565.283 279.2C566.749 275.333 568.616 270.733 570.883 265.4C570.616 265.4 568.816 266.333 565.483 268.2C562.149 270.067 558.549 272.933 554.683 276.8C548.416 282.8 542.749 288.733 537.683 294.6C532.749 300.467 527.683 307 522.483 314.2C519.549 318.333 516.949 321.8 514.683 324.6C512.549 327.533 510.683 329.467 509.083 330.4C506.283 328.8 504.216 326.533 502.883 323.6C501.549 320.8 500.549 317.867 499.883 314.8C499.883 312.267 500.216 309.067 500.883 305.2C501.683 301.333 502.683 297.067 503.883 292.4C505.216 287.6 506.816 282.6 508.683 277.4C510.549 272.2 512.616 267 514.883 261.8C519.949 250.067 524.549 240.867 528.683 234.2C532.949 227.533 535.616 223.933 536.683 223.4ZM565.891 380C565.891 379.2 566.157 378.467 566.691 377.8C567.224 377.133 567.824 376.467 568.491 375.8C570.091 377.267 571.491 378.4 572.691 379.2C573.757 380 574.824 380.667 575.891 381.2C576.824 381.733 577.824 382.067 578.891 382.2C579.957 382.333 581.224 382.4 582.691 382.4C589.624 382.4 596.224 380.533 602.491 376.8C608.757 373.2 614.624 367.933 620.091 361C625.691 354.067 630.757 345.6 635.291 335.6C639.824 325.6 643.824 314.267 647.291 301.6C645.691 303.2 643.691 305 641.291 307C639.024 308.867 636.624 310.667 634.091 312.4C631.557 314.133 629.024 315.733 626.491 317.2C624.091 318.667 622.024 319.733 620.291 320.4C618.024 320 615.891 319.067 613.891 317.6C612.024 316 610.357 314.067 608.891 311.8C607.424 309.533 606.291 307 605.491 304.2C604.691 301.267 604.291 298.2 604.291 295C604.291 289.8 605.224 284.467 607.091 279C609.091 273.533 611.691 268.2 614.891 263C618.091 257.667 621.824 252.667 626.091 248C630.491 243.333 635.091 239.267 639.891 235.8C644.824 232.333 649.757 229.6 654.691 227.6C659.757 225.467 664.691 224.4 669.491 224.4C674.157 224.4 677.624 225.4 679.891 227.4C682.291 229.267 684.024 232.533 685.091 237.2C683.624 236.4 681.757 236 679.491 236C676.291 236 672.557 237.267 668.291 239.8C664.157 242.333 659.891 245.667 655.491 249.8C651.224 253.8 646.957 258.467 642.691 263.8C638.424 269 634.624 274.333 631.291 279.8C628.091 285.267 625.424 290.6 623.291 295.8C621.291 301 620.291 305.667 620.291 309.8C620.291 310.733 620.357 311.333 620.491 311.6C620.624 311.733 620.824 311.8 621.091 311.8C622.291 311.8 623.891 311.133 625.891 309.8C628.024 308.467 630.357 306.8 632.891 304.8C635.557 302.667 638.291 300.267 641.091 297.6C643.891 294.8 646.557 292 649.091 289.2C654.824 282.8 660.024 275.667 664.691 267.8C669.491 259.8 673.291 252.067 676.091 244.6C679.691 244.867 682.891 245.467 685.691 246.4C688.491 247.333 690.424 248.333 691.491 249.4C686.957 259.8 683.291 268.533 680.491 275.6C677.824 282.667 675.491 288.933 673.491 294.4C669.891 304 666.491 312.733 663.291 320.6C660.224 328.6 657.024 335.933 653.691 342.6C650.491 349.4 646.957 355.667 643.091 361.4C639.357 367.267 635.091 372.867 630.291 378.2C628.024 380.733 625.424 382.933 622.491 384.8C619.691 386.8 616.757 388.467 613.691 389.8C610.757 391.133 607.824 392.133 604.891 392.8C602.091 393.467 599.491 393.8 597.091 393.8C593.891 393.8 590.624 393.4 587.291 392.6C583.957 391.933 580.891 390.933 578.091 389.6C575.157 388.4 572.624 386.933 570.491 385.2C568.357 383.6 566.824 381.867 565.891 380Z" fill="#D88819"/>
<defs>
<clipPath id="bgblur_0_47_1689_clip_path" transform="translate(-7.27031 -135.4)"><path d="M26.2703 309C26.2703 304.2 27.0036 298 28.4703 290.4C30.0703 282.667 32.0703 274.4 34.4703 265.6C37.0036 256.667 39.8703 247.6 43.0703 238.4C46.2703 229.067 49.537 220.333 52.8703 212.2C56.2036 204.067 59.4703 196.933 62.6703 190.8C65.8703 184.667 68.737 180.267 71.2703 177.6C72.6036 177.733 74.337 178.267 76.4703 179.2C78.737 180 81.0036 181 83.2703 182.2C85.537 183.4 87.6037 184.733 89.4703 186.2C91.337 187.533 92.537 188.8 93.0703 190C89.2037 193.467 85.337 198.733 81.4703 205.8C77.737 212.733 74.0703 220.667 70.4703 229.6C67.0036 238.533 63.737 248 60.6703 258C57.6036 267.867 54.937 277.467 52.6703 286.8C50.4036 296.133 48.6036 304.8 47.2703 312.8C46.0703 320.8 45.4703 327.267 45.4703 332.2C45.4703 334.467 45.6703 335.867 46.0703 336.4C43.137 336.267 41.0036 335.733 39.6703 334.8C38.337 334 37.2703 333.067 36.4703 332C35.8036 331.067 35.137 330.067 34.4703 329C33.937 328.067 33.0703 327.333 31.8703 326.8C30.937 326.4 30.137 325.467 29.4703 324C28.8036 322.533 28.2036 320.933 27.6703 319.2C27.2703 317.333 26.937 315.467 26.6703 313.6C26.4036 311.733 26.2703 310.2 26.2703 309ZM142.041 240.8C141.907 243.333 141.441 246 140.641 248.8C139.974 251.467 139.107 253.933 138.041 256.2C136.974 258.333 135.841 260.133 134.641 261.6C133.441 263.067 132.307 263.8 131.241 263.8C129.774 263.667 128.907 262.667 128.641 260.8C128.641 260.4 128.774 259.8 129.041 259C129.441 258.067 129.841 257.067 130.241 256C130.641 254.933 130.974 253.867 131.241 252.8C131.641 251.733 131.841 250.8 131.841 250C131.841 248.133 131.374 246.6 130.441 245.4C129.641 244.067 128.507 243.4 127.041 243.4C121.707 243.4 117.641 246.733 114.841 253.4C112.041 260.067 110.641 269.867 110.641 282.8C110.641 284.133 110.707 284.933 110.841 285.2C113.641 285.067 116.107 285 118.241 285C120.507 284.867 122.707 284.8 124.841 284.8C124.974 285.067 125.041 285.6 125.041 286.4C125.041 287.6 124.774 288.467 124.241 289C121.174 289.667 118.707 290.267 116.841 290.8C115.107 291.2 113.774 291.6 112.841 292C111.907 292.4 111.307 292.867 111.041 293.4C110.907 293.8 110.841 294.4 110.841 295.2C110.841 296.267 110.841 297.333 110.841 298.4C110.974 299.467 111.041 300.8 111.041 302.4C111.041 313.6 107.974 322.6 101.841 329.4C95.8406 336.2 87.4406 340.133 76.6406 341.2C74.774 341.067 72.8406 340.533 70.8406 339.6C68.8406 338.667 66.9073 337.467 65.0406 336C63.3073 334.533 61.774 332.867 60.4406 331C59.1073 329.267 58.174 327.467 57.6406 325.6C57.6406 320.533 58.7073 315.733 60.8406 311.2C62.974 306.533 65.8406 302.467 69.4406 299C73.174 295.4 77.5073 292.533 82.4406 290.4C87.5073 288.133 92.974 286.8 98.8406 286.4C98.8406 283.067 98.5073 279.8 97.8406 276.6C97.174 273.4 96.4406 270.333 95.6406 267.4C94.974 264.333 94.3073 261.4 93.6406 258.6C92.974 255.667 92.6406 252.8 92.6406 250C92.6406 246.4 93.374 242.867 94.8406 239.4C96.3073 235.8 98.2406 232.533 100.641 229.6C103.041 226.533 105.841 223.933 109.041 221.8C112.241 219.667 115.574 218.2 119.041 217.4C120.507 217.8 122.441 219 124.841 221C127.374 222.867 129.841 225 132.241 227.4C134.641 229.8 136.774 232.267 138.641 234.8C140.507 237.2 141.641 239.2 142.041 240.8ZM76.0406 332C79.2406 330.667 82.2406 328.733 85.0406 326.2C87.974 323.667 90.5073 320.8 92.6406 317.6C94.774 314.4 96.4406 311 97.6406 307.4C98.974 303.8 99.6406 300.267 99.6406 296.8C96.974 297.2 94.0406 298.467 90.8406 300.6C87.6406 302.6 84.6406 305.067 81.8406 308C79.0406 310.8 76.7073 313.733 74.8406 316.8C72.974 319.867 72.0406 322.533 72.0406 324.8C72.0406 327.733 73.374 330.133 76.0406 332ZM186.838 281.2C186.838 271.867 187.904 262.733 190.038 253.8C192.304 244.733 195.438 236.2 199.438 228.2C203.438 220.067 208.171 212.667 213.638 206C219.238 199.2 225.304 193.333 231.838 188.4C238.504 183.467 245.571 179.667 253.038 177C260.504 174.2 268.171 172.8 276.037 172.8C285.238 172.8 292.371 174.733 297.438 178.6C302.638 182.467 305.238 187.867 305.238 194.8C305.238 197.467 304.838 200.2 304.038 203C303.371 205.8 302.304 208.6 300.838 211.4C299.504 214.067 297.904 216.667 296.038 219.2C294.171 221.733 292.104 223.933 289.838 225.8C286.371 225.267 283.371 223.733 280.838 221.2C278.304 218.533 276.704 215.467 276.037 212C280.704 208.133 284.371 204.133 287.038 200C289.838 195.733 291.238 191.867 291.238 188.4C291.238 182.533 287.571 179.6 280.238 179.6C277.171 179.6 273.971 180.267 270.638 181.6C267.438 182.8 264.171 184.533 260.838 186.8C257.504 189.067 254.238 191.8 251.038 195C247.971 198.2 245.104 201.733 242.438 205.6C223.904 232.267 214.638 259.533 214.638 287.4C214.638 297.267 216.171 305.2 219.238 311.2C222.304 317.2 226.371 320.733 231.438 321.8C237.171 320.467 244.438 316.8 253.238 310.8C262.038 304.8 271.638 297 282.038 287.4C283.371 288.733 284.171 290.133 284.438 291.6C280.571 296.667 276.571 301.533 272.438 306.2C268.304 310.867 264.171 315.133 260.038 319C256.038 322.867 252.038 326.267 248.038 329.2C244.171 332.133 240.571 334.4 237.238 336C220.704 335.733 208.171 331 199.638 321.8C191.104 312.6 186.838 299.067 186.838 281.2ZM361.541 239.6C362.874 239.6 364.407 239.867 366.141 240.4C368.007 240.8 369.674 241.4 371.141 242.2C372.607 242.867 373.807 243.6 374.741 244.4C375.807 245.2 376.341 245.933 376.341 246.6C373.674 252.2 371.207 257.867 368.941 263.6C366.674 269.2 364.741 274.6 363.141 279.8C361.541 285 360.274 289.867 359.341 294.4C358.541 298.933 358.141 302.867 358.141 306.2C358.141 309.933 358.541 313.067 359.341 315.6C360.141 318 361.474 319.733 363.341 320.8C361.741 321.867 359.674 322.733 357.141 323.4C354.607 324.067 352.341 324.4 350.341 324.4C343.141 324.4 339.541 319.467 339.541 309.6C339.541 302 342.074 291.6 347.141 278.4C344.474 284.533 341.407 290.333 337.941 295.8C334.474 301.133 330.941 305.867 327.341 310C323.741 314.133 320.074 317.533 316.341 320.2C312.741 322.733 309.407 324.267 306.341 324.8C301.407 324.533 297.407 322.2 294.341 317.8C291.274 313.267 289.741 307.533 289.741 300.6C289.741 293.133 291.341 285.267 294.541 277C297.741 268.733 301.807 261.067 306.741 254C311.807 246.933 317.274 241.067 323.141 236.4C329.007 231.6 334.674 229.067 340.141 228.8C341.474 229.2 342.941 230 344.541 231.2C346.274 232.4 347.874 233.8 349.341 235.4C350.941 237 352.274 238.667 353.341 240.4C354.407 242 355.007 243.4 355.141 244.6C349.807 245.4 344.274 248 338.541 252.4C332.941 256.8 327.807 262.133 323.141 268.4C318.607 274.533 314.874 281.133 311.941 288.2C309.007 295.267 307.541 301.867 307.541 308C307.541 310.533 308.474 312.133 310.341 312.8C314.207 312 318.674 308.733 323.741 303C328.807 297.133 334.941 288.133 342.141 276C343.474 273.6 344.941 270.933 346.541 268C348.274 265.067 350.007 262 351.741 258.8C353.474 255.6 355.141 252.4 356.741 249.2C358.474 245.867 360.074 242.667 361.541 239.6ZM380.286 307.6C380.286 301.733 381.686 293.533 384.486 283C387.286 272.333 391.219 259.933 396.286 245.8C404.553 223.267 412.286 204.533 419.486 189.6C426.819 174.533 433.953 162.8 440.886 154.4C442.486 154.667 444.419 155.333 446.686 156.4C449.086 157.467 451.419 158.667 453.686 160C455.953 161.2 457.953 162.467 459.686 163.8C461.553 165.133 462.753 166.2 463.286 167C452.886 179.267 443.753 192.467 435.886 206.6C428.019 220.733 420.819 236.933 414.286 255.2C408.686 270.933 404.419 285.133 401.486 297.8C398.553 310.333 397.086 320.8 397.086 329.2C397.086 331.467 397.086 332.867 397.086 333.4C397.086 333.933 397.153 334.467 397.286 335C395.419 334.733 393.819 334.267 392.486 333.6C391.153 332.933 390.286 332.133 389.886 331.2C389.619 330.533 388.886 329.533 387.686 328.2C386.486 327 385.419 326.067 384.486 325.4C383.286 324.6 382.286 322.533 381.486 319.2C380.686 315.733 380.286 311.867 380.286 307.6ZM421.552 307.6C421.552 301.733 422.952 293.533 425.752 283C428.552 272.333 432.485 259.933 437.552 245.8C445.818 223.267 453.552 204.533 460.752 189.6C468.085 174.533 475.218 162.8 482.152 154.4C483.752 154.667 485.685 155.333 487.952 156.4C490.352 157.467 492.685 158.667 494.952 160C497.218 161.2 499.218 162.467 500.952 163.8C502.818 165.133 504.018 166.2 504.552 167C494.152 179.267 485.018 192.467 477.152 206.6C469.285 220.733 462.085 236.933 455.552 255.2C449.952 270.933 445.685 285.133 442.752 297.8C439.818 310.333 438.352 320.8 438.352 329.2C438.352 331.467 438.352 332.867 438.352 333.4C438.352 333.933 438.418 334.467 438.552 335C436.685 334.733 435.085 334.267 433.752 333.6C432.418 332.933 431.552 332.133 431.152 331.2C430.885 330.533 430.152 329.533 428.952 328.2C427.752 327 426.685 326.067 425.752 325.4C424.552 324.6 423.552 322.533 422.752 319.2C421.952 315.733 421.552 311.867 421.552 307.6ZM463.217 307C463.217 305.8 463.284 304.333 463.417 302.6C463.684 300.733 464.084 298.333 464.617 295.4C465.151 292.333 465.817 288.667 466.617 284.4C467.551 280.133 468.684 275 470.017 269C470.284 267.667 470.884 265.533 471.817 262.6C472.751 259.667 473.951 256.6 475.417 253.4C477.017 250.067 478.884 246.867 481.017 243.8C483.284 240.733 485.951 238.467 489.017 237C491.284 237.533 494.284 238.933 498.017 241.2C501.751 243.333 504.951 246.333 507.617 250.2C504.551 253.667 501.951 257.133 499.817 260.6C497.817 264.067 495.951 267.667 494.217 271.4C492.617 275.133 491.084 279 489.617 283C488.284 287 486.751 291.2 485.017 295.6C483.551 299.333 482.217 303.2 481.017 307.2C479.817 311.067 479.151 314.467 479.017 317.4C479.017 319.8 478.951 321.467 478.817 322.4C478.817 323.467 478.484 324 477.817 324C477.284 324 476.217 323.667 474.617 323C473.017 322.333 471.351 321.333 469.617 320C468.017 318.533 466.551 316.733 465.217 314.6C463.884 312.467 463.217 309.933 463.217 307ZM501.417 220.2C501.417 219.4 501.617 218.2 502.017 216.6C501.351 215.933 500.751 214.933 500.217 213.6C499.817 212.267 499.617 211.067 499.617 210C499.617 208.8 499.751 207.2 500.017 205.2C500.417 203.067 500.884 200.8 501.417 198.4C501.951 196 502.617 193.533 503.417 191C504.217 188.333 505.017 185.933 505.817 183.8C507.417 183.8 509.351 184.267 511.617 185.2C514.017 186 516.417 187.133 518.817 188.6C521.217 189.933 523.417 191.467 525.417 193.2C527.417 194.8 528.951 196.333 530.017 197.8C528.551 199.267 526.617 201.333 524.217 204C521.817 206.533 519.484 209.267 517.217 212.2C514.951 215 512.884 217.667 511.017 220.2C509.151 222.733 507.951 224.533 507.417 225.6C505.817 225.333 504.417 224.667 503.217 223.6C502.017 222.4 501.417 221.267 501.417 220.2ZM536.683 223.4C540.149 224.467 543.416 226.867 546.483 230.6C549.549 234.2 551.816 238.2 553.283 242.6C551.816 246.2 549.549 250.533 546.483 255.6C543.416 260.667 540.349 265.867 537.283 271.2C534.216 276.4 531.416 281.4 528.883 286.2C526.483 290.867 525.083 294.733 524.683 297.8C526.816 295.533 529.149 292.933 531.683 290C534.349 286.933 536.883 283.933 539.283 281C541.816 277.933 544.149 275.2 546.283 272.8C548.416 270.267 550.083 268.4 551.283 267.2C553.816 264.533 556.816 261.467 560.283 258C563.749 254.4 567.349 251.067 571.083 248C574.949 244.8 578.816 242.133 582.683 240C586.549 237.733 590.083 236.6 593.283 236.6C596.749 236.6 599.616 237.8 601.883 240.2C604.283 242.467 606.149 244.867 607.483 247.4C607.483 247.667 606.949 248.067 605.883 248.6C604.949 249 603.549 250.267 601.683 252.4C599.816 254.8 597.683 258.133 595.283 262.4C593.016 266.533 590.749 271.067 588.483 276C586.349 280.8 584.549 285.733 583.083 290.8C581.616 295.867 580.883 300.467 580.883 304.6C580.883 307.933 581.283 310.067 582.083 311C583.016 311.933 584.283 312.4 585.883 312.4C587.349 312.4 588.883 312.067 590.483 311.4C592.083 310.733 593.349 310.4 594.283 310.4C594.816 310.667 595.216 311.267 595.483 312.2C595.883 313 596.083 313.733 596.083 314.4C595.016 315.333 593.749 316.267 592.283 317.2C590.816 318.133 589.283 319 587.683 319.8C586.083 320.6 584.483 321.267 582.883 321.8C581.416 322.333 580.083 322.6 578.883 322.6C575.016 322.6 571.816 322 569.283 320.8C566.883 319.733 564.949 318.267 563.483 316.4C562.149 314.533 561.216 312.333 560.683 309.8C560.149 307.133 559.883 304.333 559.883 301.4C559.883 299.8 560.016 298 560.283 296C560.549 294 561.083 291.667 561.883 289C562.683 286.2 563.816 282.933 565.283 279.2C566.749 275.333 568.616 270.733 570.883 265.4C570.616 265.4 568.816 266.333 565.483 268.2C562.149 270.067 558.549 272.933 554.683 276.8C548.416 282.8 542.749 288.733 537.683 294.6C532.749 300.467 527.683 307 522.483 314.2C519.549 318.333 516.949 321.8 514.683 324.6C512.549 327.533 510.683 329.467 509.083 330.4C506.283 328.8 504.216 326.533 502.883 323.6C501.549 320.8 500.549 317.867 499.883 314.8C499.883 312.267 500.216 309.067 500.883 305.2C501.683 301.333 502.683 297.067 503.883 292.4C505.216 287.6 506.816 282.6 508.683 277.4C510.549 272.2 512.616 267 514.883 261.8C519.949 250.067 524.549 240.867 528.683 234.2C532.949 227.533 535.616 223.933 536.683 223.4ZM565.891 380C565.891 379.2 566.157 378.467 566.691 377.8C567.224 377.133 567.824 376.467 568.491 375.8C570.091 377.267 571.491 378.4 572.691 379.2C573.757 380 574.824 380.667 575.891 381.2C576.824 381.733 577.824 382.067 578.891 382.2C579.957 382.333 581.224 382.4 582.691 382.4C589.624 382.4 596.224 380.533 602.491 376.8C608.757 373.2 614.624 367.933 620.091 361C625.691 354.067 630.757 345.6 635.291 335.6C639.824 325.6 643.824 314.267 647.291 301.6C645.691 303.2 643.691 305 641.291 307C639.024 308.867 636.624 310.667 634.091 312.4C631.557 314.133 629.024 315.733 626.491 317.2C624.091 318.667 622.024 319.733 620.291 320.4C618.024 320 615.891 319.067 613.891 317.6C612.024 316 610.357 314.067 608.891 311.8C607.424 309.533 606.291 307 605.491 304.2C604.691 301.267 604.291 298.2 604.291 295C604.291 289.8 605.224 284.467 607.091 279C609.091 273.533 611.691 268.2 614.891 263C618.091 257.667 621.824 252.667 626.091 248C630.491 243.333 635.091 239.267 639.891 235.8C644.824 232.333 649.757 229.6 654.691 227.6C659.757 225.467 664.691 224.4 669.491 224.4C674.157 224.4 677.624 225.4 679.891 227.4C682.291 229.267 684.024 232.533 685.091 237.2C683.624 236.4 681.757 236 679.491 236C676.291 236 672.557 237.267 668.291 239.8C664.157 242.333 659.891 245.667 655.491 249.8C651.224 253.8 646.957 258.467 642.691 263.8C638.424 269 634.624 274.333 631.291 279.8C628.091 285.267 625.424 290.6 623.291 295.8C621.291 301 620.291 305.667 620.291 309.8C620.291 310.733 620.357 311.333 620.491 311.6C620.624 311.733 620.824 311.8 621.091 311.8C622.291 311.8 623.891 311.133 625.891 309.8C628.024 308.467 630.357 306.8 632.891 304.8C635.557 302.667 638.291 300.267 641.091 297.6C643.891 294.8 646.557 292 649.091 289.2C654.824 282.8 660.024 275.667 664.691 267.8C669.491 259.8 673.291 252.067 676.091 244.6C679.691 244.867 682.891 245.467 685.691 246.4C688.491 247.333 690.424 248.333 691.491 249.4C686.957 259.8 683.291 268.533 680.491 275.6C677.824 282.667 675.491 288.933 673.491 294.4C669.891 304 666.491 312.733 663.291 320.6C660.224 328.6 657.024 335.933 653.691 342.6C650.491 349.4 646.957 355.667 643.091 361.4C639.357 367.267 635.091 372.867 630.291 378.2C628.024 380.733 625.424 382.933 622.491 384.8C619.691 386.8 616.757 388.467 613.691 389.8C610.757 391.133 607.824 392.133 604.891 392.8C602.091 393.467 599.491 393.8 597.091 393.8C593.891 393.8 590.624 393.4 587.291 392.6C583.957 391.933 580.891 390.933 578.091 389.6C575.157 388.4 572.624 386.933 570.491 385.2C568.357 383.6 566.824 381.867 565.891 380Z"/>
</clipPath><linearGradient id="paint0_linear_47_1689" x1="366" y1="67.8999" x2="366" y2="212.4" gradientUnits="userSpaceOnUse">
<stop stop-color="#6B3112"/>
<stop offset="1" stop-color="#6B3112" stop-opacity="0"/>
</linearGradient>
</defs>
</svg>
